 <svg  version="1.0" xmlns="http://www.w3.org/2000/svg"  width="300.000000pt" height="311.000000pt" viewBox="0 0 300.000000 311.000000"  preserveAspectRatio="xMidYMid meet">  <g transform="translate(0.000000,311.000000) scale(0.050000,-0.050000)" fill="#ffffff" stroke="none"> <path d="M2903 5949 c-75 -32 -803 -743 -797 -777 2 -12 -6 -20 -18 -18 -12 2 -48 -22 -79 -55 -77 -80 -89 -77 -197 61 -52 66 -102 120 -110 120 -9 0 -37 18 -62 40 -225 195 -880 57 -880 -186 0 -116 291 -479 498 -623 112 -77 127 -53 -309 -491 -214 -216 -383 -400 -375 -409 9 -10 6 -11 -7 -4 -36 20 -325 -300 -382 -423 l-49 -106 56 -114 c44 -91 161 -221 586 -650 293 -296 535 -540 538 -543 32 -34 15 -96 -32 -116 -162 -68 -541 -526 -516 -624 14 -57 82 -135 101 -116 8 8 11 3 8 -12 -27 -109 494 -173 692 -86 109 49 231 157 231 206 0 22 8 35 17 29 9 -6 28 12 40 40 36 79 56 64 508 -384 441 -439 526 -508 623 -508 69 0 198 75 179 105 -7 12 -4 16 6 9 26 -16 433 393 413 415 -9 10 -6 12 6 5 41 -24 364 342 332 376 -8 9 -3 10 10 3 13 -8 29 -4 36 7 14 23 132 -63 225 -163 224 -242 821 -247 944 -7 17 33 38 63 46 67 37 16 -42 223 -85 223 -11 0 -20 12 -20 26 0 14 -62 86 -138 159 -76 73 -134 136 -130 141 5 4 -42 55 -103 113 -61 58 -109 107 -105 109 73 43 154 120 143 136 -7 12 -4 17 7 10 26 -16 151 113 131 136 -8 9 -5 11 7 4 20 -12 261 214 272 256 4 11 12 18 18 16 19 -6 500 489 493 508 -3 9 2 16 10 16 9 0 32 27 52 60 118 195 85 250 -506 841 -496 497 -583 576 -613 558 -10 -6 -9 11 1 38 10 27 12 55 5 63 -8 7 -4 10 8 7 49 -15 528 520 528 588 0 21 8 32 18 26 17 -10 41 51 42 106 0 42 -169 199 -233 217 -259 72 -681 -3 -776 -139 -17 -24 -31 -38 -31 -30 0 7 -38 -22 -85 -66 -110 -102 -114 -101 -231 46 -138 172 -642 662 -757 735 -108 68 -113 69 -204 29z m495 -577 l408 -408 -148 -161 -148 -161 -260 271 -261 271 -200 -207 c-111 -114 -266 -275 -345 -359 l-144 -151 0 -1387 0 -1387 335 -341 c184 -188 338 -346 342 -352 4 -5 126 113 271 264 l265 274 153 -154 153 -154 -418 -420 -419 -420 -321 330 c-177 181 -774 788 -1327 1347 l-1006 1018 331 333 c802 808 2272 2309 2287 2334 26 45 27 44 452 -380z m-1775 -299 c120 -107 121 -97 -51 -277 l-147 -155 -260 259 c-143 142 -258 261 -254 264 3 3 143 3 312 -1 l306 -6 94 -84z m2433 -934 c-553 -561 -1012 -1019 -1020 -1019 -57 0 91 -158 1000 -1066 560 -559 1012 -1019 1005 -1023 -6 -4 -146 -8 -311 -9 l-300 -3 -976 977 -976 976 6 124 6 124 968 969 967 970 303 5 c166 4 309 3 317 0 9 -4 -437 -465 -989 -1025z m-927 582 c54 -55 107 -94 117 -87 11 7 14 3 7 -9 -7 -12 25 -53 71 -91 l83 -70 -132 -147 c-131 -146 -633 -644 -700 -695 -33 -25 -35 -4 -35 382 l0 409 205 204 c238 235 251 239 384 104z m1951 -1091 l550 -550 -550 -550 c-302 -303 -555 -548 -561 -545 -6 3 -76 73 -155 157 l-143 151 390 388 c214 213 387 395 384 403 -3 8 -180 191 -393 406 l-389 390 149 150 c81 82 153 149 158 149 6 1 257 -247 560 -549z m-923 25 c55 -69 195 -219 312 -335 116 -115 211 -223 211 -240 0 -17 -112 -143 -250 -280 -137 -137 -250 -259 -250 -271 0 -23 -117 -149 -137 -148 -31 1 -167 124 -333 302 -99 106 -196 199 -217 206 -20 8 -31 20 -24 27 6 6 -21 45 -61 86 l-74 75 55 67 c105 128 619 636 643 636 13 0 70 -56 125 -125z m-1428 -1220 c10 8 12 5 5 -6 -15 -27 653 -696 673 -675 8 8 9 -1 2 -20 -26 -67 -376 -394 -423 -394 -30 0 -109 66 -245 204 l-201 204 0 420 0 420 86 -84 c48 -47 94 -78 103 -69z m-1161 -1047 c180 -180 174 -154 58 -272 l-94 -96 -317 0 -317 0 256 259 c141 142 257 259 259 260 1 0 71 -68 155 -151z"/> <path d="M1391 3545 l-459 -467 459 -457 459 -456 10 912 c6 502 6 918 0 924 -5 7 -217 -198 -469 -456z m209 -463 l0 -338 -48 23 c-27 12 -47 28 -45 34 1 6 -58 74 -132 150 -74 77 -126 142 -115 146 11 3 14 16 7 28 -7 12 -4 16 7 9 11 -7 85 55 165 137 80 82 149 149 153 149 5 0 8 -152 8 -338z"/> </g> </svg> 